# xmcd
#
# Track frame offsets:
#	150
#	20820
#	39076
#	53163
#	78578
#	91186
#	105422
#	120892
#	138707
#	156189
#	173078
#	188981
#	206048
#	222541
#	238615
#	255243
#	269418
#	284524
#	298733
#	312810
#
# Disc length: 4427 seconds
#
# Revision: 1
# Processed by: cddbd v1.5.2PL0 Copyright (c) Steve Scherf et al.
# Submitted via: audiograbber 1.83.01
#
DISCID=20114914
DTITLE=Various Artist - 100 Hits The Best Country Album CD4
DYEAR=2018
DGENRE=Country
TTITLE0=Shawn Mullins - Lullaby
TTITLE1=Lonestar - Amazed
TTITLE2=Ward Thomas - Guilty Flowers
TTITLE3=Sara Evans - Born To Fly
TTITLE4=Chris Young - You
TTITLE5=Love and Theft - Angel Eyes
TTITLE6=Montgomery Gentry - If You Ever Stop Loving Me
TTITLE7=Phil Vassar - Just Another Day In Paradise
TTITLE8=Alan Jackson and Jimmy Buffett - It's Five O'clock Somewhere
TTITLE9=Ronnie Milsap - Smoky Mountain Rain
TTITLE10=Brooks and Dunn - My Maria
TTITLE11=Martina McBride - Wild Angels
TTITLE12=Joe Diffie - Pickup Man
TTITLE13=Mary Chapin Carpenter - I Feel Lucky
TTITLE14=Shenandoah - Next To You, Next To Me
TTITLE15=Exile - Woke Up In Love
TTITLE16=Alabama - Love In The First Degree
TTITLE17=Ricky Van Shelton - I'll Leave This World Loving You
TTITLE18=Patty Loveless - Here I Am
TTITLE19=Travis Tritt - Best Of Intentions
EXTD=
EXTT0=
EXTT1=
EXTT2=
EXTT3=
EXTT4=
EXTT5=
EXTT6=
EXTT7=
EXTT8=
EXTT9=
EXTT10=
EXTT11=
EXTT12=
EXTT13=
EXTT14=
EXTT15=
EXTT16=
EXTT17=
EXTT18=
EXTT19=
PLAYORDER=
